<svg xmlns="http://www.w3.org/2000/svg" width="425.464" height="115.294" viewBox="0 0 425.464 115.294">
  <g id="Grupo_137279" data-name="Grupo 137279" transform="translate(-857 -743)">
    <path id="Trazado_194539" data-name="Trazado 194539" d="M0,0H411.522V86.247H0Z" transform="translate(857 743)" fill="#091743"/>
    <g id="Grupo_134094" data-name="Grupo 134094" transform="translate(900.929 752.454)">
      <text id="número_de_casos_posibles" data-name="número de casos posibles" transform="translate(65.548 62.538)" fill="#fff" font-size="22" font-family="RobotoCondensed-Regular, Roboto"><tspan x="0" y="0">número de casos posibles</tspan></text>
      <line id="Línea_332" data-name="Línea 332" x2="276.116" transform="translate(41.877 37.043)" fill="#fff" stroke="#4dd0e1" stroke-miterlimit="10" stroke-width="1"/>
      <text id="número_de_casos_favorables" data-name="número de casos favorables" transform="translate(56.739 21)" fill="#fff" font-size="22" font-family="RobotoCondensed-Regular, Roboto"><tspan x="0" y="0">número de casos favorables</tspan></text>
      <text id="P_" data-name="P=" transform="translate(0 45.72)" fill="#fff" font-size="24" font-family="RobotoCondensed-Regular, Roboto"><tspan x="0" y="0">P=</tspan></text>
    </g>
    <path id="Trazado_194540" data-name="Trazado 194540" d="M1.3,0V-12.086h2.88a4.157,4.157,0,0,1,3.287,1.324,5.435,5.435,0,0,1,1.17,3.723v2.025A5.321,5.321,0,0,1,7.454-1.307,4.416,4.416,0,0,1,4.009,0ZM2.822-10.783V-1.3h1.22a2.827,2.827,0,0,0,2.341-.918,4.337,4.337,0,0,0,.755-2.721V-7.086A4.381,4.381,0,0,0,6.4-9.89a2.708,2.708,0,0,0-2.22-.893Zm7.67,5.877a4.7,4.7,0,0,1,.95-3.1,3.106,3.106,0,0,1,2.511-1.141,3.14,3.14,0,0,1,2.511,1.112,4.608,4.608,0,0,1,.975,3.03v.946a4.68,4.68,0,0,1-.946,3.088A3.117,3.117,0,0,1,13.97.166a3.126,3.126,0,0,1-2.5-1.1,4.582,4.582,0,0,1-.975-2.988Zm1.469.847a3.806,3.806,0,0,0,.544,2.179,1.692,1.692,0,0,0,1.465.793q1.942,0,2-2.806V-4.906a3.808,3.808,0,0,0-.548-2.179,1.7,1.7,0,0,0-1.469-.8,1.673,1.673,0,0,0-1.448.8,3.813,3.813,0,0,0-.544,2.171Zm2.681-8.674H16.5l-2.225,2.44-1.237,0Zm6.076,3.752.042.971a2.621,2.621,0,0,1,2.183-1.137q2.382,0,2.416,3.179V0H23.9V-5.9a2.447,2.447,0,0,0-.353-1.5,1.27,1.27,0,0,0-1.058-.444,1.491,1.491,0,0,0-.984.365,2.631,2.631,0,0,0-.7.955V0H19.333V-8.981ZM27.251-4.9a5.412,5.412,0,0,1,.776-3.163,2.571,2.571,0,0,1,2.229-1.087A2.307,2.307,0,0,1,32.265-8.1V-12.75h1.469V0H32.39l-.075-.963A2.312,2.312,0,0,1,30.248.166,2.561,2.561,0,0,1,28.061-.917a5.184,5.184,0,0,1-.809-3.059Zm1.469.834a4.258,4.258,0,0,0,.448,2.218,1.6,1.6,0,0,0,1.461.709,1.739,1.739,0,0,0,1.635-1.1V-6.766a1.766,1.766,0,0,0-1.627-1.078,1.6,1.6,0,0,0-1.461.709,4.2,4.2,0,0,0-.457,2.176ZM39.2.166a3.276,3.276,0,0,1-2.573-1,4.323,4.323,0,0,1-.913-2.934V-4.856a5.062,5.062,0,0,1,.876-3.15,2.906,2.906,0,0,1,2.445-1.141,2.8,2.8,0,0,1,2.357,1,5.162,5.162,0,0,1,.8,3.129v.963H37.179v.208a3.276,3.276,0,0,0,.544,2.1,1.917,1.917,0,0,0,1.565.656,2.538,2.538,0,0,0,1.141-.245,2.836,2.836,0,0,0,.926-.776l.764.93A3.333,3.333,0,0,1,39.2.166Zm-.166-8.052a1.54,1.54,0,0,0-1.353.627,3.72,3.72,0,0,0-.5,1.947h3.536v-.2a3.432,3.432,0,0,0-.461-1.826A1.42,1.42,0,0,0,39.039-7.886ZM44-.805a.962.962,0,0,1,.237-.664.9.9,0,0,1,.71-.266.928.928,0,0,1,.718.266.942.942,0,0,1,.245.664.891.891,0,0,1-.245.639.945.945,0,0,1-.718.257.917.917,0,0,1-.71-.257A.909.909,0,0,1,44-.805Zm.008-7.33a.962.962,0,0,1,.237-.664.9.9,0,0,1,.71-.266.928.928,0,0,1,.718.266.942.942,0,0,1,.245.664.891.891,0,0,1-.245.639.945.945,0,0,1-.718.257.917.917,0,0,1-.71-.257A.909.909,0,0,1,44.011-8.135ZM55.026.166a3.276,3.276,0,0,1-2.573-1,4.323,4.323,0,0,1-.913-2.934V-4.856a5.062,5.062,0,0,1,.876-3.15A2.906,2.906,0,0,1,54.86-9.147a2.8,2.8,0,0,1,2.357,1,5.162,5.162,0,0,1,.8,3.129v.963H53v.208a3.276,3.276,0,0,0,.544,2.1,1.917,1.917,0,0,0,1.565.656,2.538,2.538,0,0,0,1.141-.245,2.836,2.836,0,0,0,.926-.776l.764.93A3.333,3.333,0,0,1,55.026.166ZM54.86-7.886a1.54,1.54,0,0,0-1.353.627,3.72,3.72,0,0,0-.5,1.947h3.536v-.2a3.432,3.432,0,0,0-.461-1.826A1.42,1.42,0,0,0,54.86-7.886ZM61.359,0H59.89V-12.75h1.469Zm7.587-8.981.042.971a2.621,2.621,0,0,1,2.183-1.137q2.382,0,2.416,3.179V0H72.125V-5.9a2.447,2.447,0,0,0-.353-1.5,1.27,1.27,0,0,0-1.058-.444,1.491,1.491,0,0,0-.984.365,2.631,2.631,0,0,0-.7.955V0H67.56V-8.981ZM80.368-.789a2.522,2.522,0,0,1-2.133.955,2.146,2.146,0,0,1-1.843-.843,4.125,4.125,0,0,1-.631-2.453V-8.981h1.461v5.744q0,2.1,1.262,2.1a1.84,1.84,0,0,0,1.843-1.2V-8.981H81.8V0H80.4Zm-.822-11.945h1.859l-2.225,2.44-1.237,0ZM85.39-8.981l.033.83a2.671,2.671,0,0,1,2.167-1,2.125,2.125,0,0,1,2.1,1.3,2.664,2.664,0,0,1,2.357-1.3q2.482,0,2.54,3.1V0H93.126V-5.91a2.474,2.474,0,0,0-.349-1.457A1.363,1.363,0,0,0,91.6-7.844a1.321,1.321,0,0,0-1.079.515,2.346,2.346,0,0,0-.481,1.312V0H88.561V-5.977q-.025-1.868-1.519-1.868a1.6,1.6,0,0,0-1.569,1.112V0H84.012V-8.981ZM100.008.166a3.276,3.276,0,0,1-2.573-1,4.323,4.323,0,0,1-.913-2.934V-4.856a5.062,5.062,0,0,1,.876-3.15,2.906,2.906,0,0,1,2.445-1.141,2.8,2.8,0,0,1,2.357,1,5.162,5.162,0,0,1,.8,3.129v.963H97.982v.208a3.276,3.276,0,0,0,.544,2.1,1.917,1.917,0,0,0,1.565.656,2.538,2.538,0,0,0,1.141-.245,2.836,2.836,0,0,0,.926-.776l.764.93A3.333,3.333,0,0,1,100.008.166Zm-.166-8.052a1.54,1.54,0,0,0-1.353.627,3.72,3.72,0,0,0-.5,1.947h3.536v-.2a3.432,3.432,0,0,0-.461-1.826A1.42,1.42,0,0,0,99.842-7.886Zm8.625.282a3.574,3.574,0,0,0-.664-.058,1.612,1.612,0,0,0-1.577,1.237V0h-1.469V-8.981h1.428l.025.913a1.828,1.828,0,0,1,1.668-1.079,1.294,1.294,0,0,1,.581.116Zm.988,2.7a4.7,4.7,0,0,1,.95-3.1,3.106,3.106,0,0,1,2.511-1.141,3.14,3.14,0,0,1,2.511,1.112,4.608,4.608,0,0,1,.975,3.03v.946a4.68,4.68,0,0,1-.946,3.088A3.117,3.117,0,0,1,112.932.166a3.126,3.126,0,0,1-2.5-1.1,4.582,4.582,0,0,1-.975-2.988Zm1.469.847a3.806,3.806,0,0,0,.544,2.179,1.692,1.692,0,0,0,1.465.793q1.942,0,2-2.806V-4.906a3.808,3.808,0,0,0-.548-2.179,1.7,1.7,0,0,0-1.469-.8,1.673,1.673,0,0,0-1.448.8,3.813,3.813,0,0,0-.544,2.171ZM121.88-4.9a5.411,5.411,0,0,1,.776-3.163,2.571,2.571,0,0,1,2.229-1.087A2.307,2.307,0,0,1,126.894-8.1V-12.75h1.469V0h-1.345l-.075-.963A2.312,2.312,0,0,1,124.877.166,2.561,2.561,0,0,1,122.69-.917a5.184,5.184,0,0,1-.809-3.059Zm1.469.834a4.258,4.258,0,0,0,.448,2.218,1.6,1.6,0,0,0,1.461.709,1.739,1.739,0,0,0,1.635-1.1V-6.766a1.766,1.766,0,0,0-1.627-1.078,1.6,1.6,0,0,0-1.461.709,4.2,4.2,0,0,0-.457,2.176ZM133.833.166a3.276,3.276,0,0,1-2.573-1,4.323,4.323,0,0,1-.913-2.934V-4.856a5.062,5.062,0,0,1,.876-3.15,2.906,2.906,0,0,1,2.445-1.141,2.8,2.8,0,0,1,2.357,1,5.162,5.162,0,0,1,.8,3.129v.963h-5.014v.208a3.276,3.276,0,0,0,.544,2.1,1.917,1.917,0,0,0,1.565.656,2.538,2.538,0,0,0,1.141-.245,2.836,2.836,0,0,0,.926-.776l.764.93A3.333,3.333,0,0,1,133.833.166Zm-.166-8.052a1.54,1.54,0,0,0-1.353.627,3.72,3.72,0,0,0-.5,1.947h3.536v-.2a3.432,3.432,0,0,0-.461-1.826A1.42,1.42,0,0,0,133.667-7.886Zm11.928,6.8a1.558,1.558,0,0,0,1.17-.452,1.919,1.919,0,0,0,.481-1.291h1.386a3.054,3.054,0,0,1-.917,2.146A2.914,2.914,0,0,1,145.6.166a3.125,3.125,0,0,1-2.544-1.05,4.784,4.784,0,0,1-.876-3.125V-5a4.761,4.761,0,0,1,.872-3.092,3.1,3.1,0,0,1,2.54-1.058,2.84,2.84,0,0,1,2.187.872,3.545,3.545,0,0,1,.859,2.382h-1.386a2.44,2.44,0,0,0-.477-1.494,1.476,1.476,0,0,0-1.183-.5,1.684,1.684,0,0,0-1.453.643,3.71,3.71,0,0,0-.49,2.113v1.146a4,4,0,0,0,.469,2.241A1.7,1.7,0,0,0,145.6-1.087ZM154.951,0a3.231,3.231,0,0,1-.191-.979A2.333,2.333,0,0,1,152.768.166a2.575,2.575,0,0,1-1.905-.685,2.61,2.61,0,0,1-.685-1.93,2.73,2.73,0,0,1,.93-2.175,3.826,3.826,0,0,1,2.548-.822h1.079V-6.4a1.535,1.535,0,0,0-.357-1.146,1.525,1.525,0,0,0-1.087-.34,1.5,1.5,0,0,0-1.079.394,1.32,1.32,0,0,0-.415,1h-1.469a2.38,2.38,0,0,1,.407-1.316,2.833,2.833,0,0,1,1.1-.984,3.288,3.288,0,0,1,1.536-.357,2.924,2.924,0,0,1,2.1.685,2.68,2.68,0,0,1,.735,2v4.532a5.47,5.47,0,0,0,.282,1.8V0Zm-1.959-1.17a1.946,1.946,0,0,0,1.029-.3,1.843,1.843,0,0,0,.714-.747V-4.358h-.83a2.78,2.78,0,0,0-1.652.469,1.489,1.489,0,0,0-.606,1.266,1.642,1.642,0,0,0,.307,1.108A1.335,1.335,0,0,0,152.992-1.17ZM162.836-2.3a1.085,1.085,0,0,0-.357-.813,5.28,5.28,0,0,0-1.378-.8,9.011,9.011,0,0,1-1.673-.838,2.385,2.385,0,0,1-.726-.793,2.19,2.19,0,0,1-.241-1.058,2.356,2.356,0,0,1,.8-1.822,2.929,2.929,0,0,1,2.046-.726,2.92,2.92,0,0,1,2.108.764,2.594,2.594,0,0,1,.8,1.959h-1.461a1.445,1.445,0,0,0-.407-1.033,1.37,1.37,0,0,0-1.038-.427,1.457,1.457,0,0,0-1.017.335,1.153,1.153,0,0,0-.369.9.98.98,0,0,0,.27.72,4.808,4.808,0,0,0,1.3.72,6.529,6.529,0,0,1,2.225,1.251,2.142,2.142,0,0,1,.589,1.55A2.364,2.364,0,0,1,163.5-.537a3.167,3.167,0,0,1-2.158.7,3.219,3.219,0,0,1-2.274-.805,2.659,2.659,0,0,1-.872-2.042h1.478a1.646,1.646,0,0,0,.457,1.17,1.657,1.657,0,0,0,1.212.423,1.663,1.663,0,0,0,1.112-.328A1.106,1.106,0,0,0,162.836-2.3Zm3.071-2.606a4.7,4.7,0,0,1,.95-3.1,3.106,3.106,0,0,1,2.511-1.141,3.14,3.14,0,0,1,2.511,1.112,4.608,4.608,0,0,1,.975,3.03v.946a4.68,4.68,0,0,1-.946,3.088A3.117,3.117,0,0,1,169.386.166a3.126,3.126,0,0,1-2.5-1.1,4.582,4.582,0,0,1-.975-2.988Zm1.469.847a3.806,3.806,0,0,0,.544,2.179,1.692,1.692,0,0,0,1.465.793q1.942,0,2-2.806V-4.906a3.808,3.808,0,0,0-.548-2.179,1.7,1.7,0,0,0-1.469-.8,1.673,1.673,0,0,0-1.448.8,3.813,3.813,0,0,0-.544,2.171ZM179.114-2.3a1.085,1.085,0,0,0-.357-.813,5.28,5.28,0,0,0-1.378-.8,9.011,9.011,0,0,1-1.673-.838,2.385,2.385,0,0,1-.726-.793A2.19,2.19,0,0,1,174.74-6.6a2.356,2.356,0,0,1,.8-1.822,2.929,2.929,0,0,1,2.046-.726,2.92,2.92,0,0,1,2.108.764,2.594,2.594,0,0,1,.8,1.959h-1.461a1.445,1.445,0,0,0-.407-1.033,1.37,1.37,0,0,0-1.038-.427,1.457,1.457,0,0,0-1.017.335,1.153,1.153,0,0,0-.369.9.98.98,0,0,0,.27.72,4.808,4.808,0,0,0,1.3.72,6.529,6.529,0,0,1,2.225,1.251,2.142,2.142,0,0,1,.589,1.55,2.364,2.364,0,0,1-.805,1.875,3.167,3.167,0,0,1-2.158.7,3.219,3.219,0,0,1-2.274-.805,2.659,2.659,0,0,1-.872-2.042h1.478a1.646,1.646,0,0,0,.457,1.17,1.657,1.657,0,0,0,1.212.423,1.663,1.663,0,0,0,1.112-.328A1.106,1.106,0,0,0,179.114-2.3Zm13.763-1.76a5.373,5.373,0,0,1-.768,3.179A2.535,2.535,0,0,1,189.938.166a2.408,2.408,0,0,1-2.083-1.021V3.453h-1.461V-8.981h1.328l.075,1a2.364,2.364,0,0,1,2.117-1.162,2.528,2.528,0,0,1,2.208,1.029,5.443,5.443,0,0,1,.755,3.08ZM191.416-4.9a4.188,4.188,0,0,0-.465-2.229,1.648,1.648,0,0,0-1.494-.718,1.729,1.729,0,0,0-1.6,1.054v4.673a1.733,1.733,0,0,0,1.619,1.029,1.625,1.625,0,0,0,1.465-.718,4.122,4.122,0,0,0,.477-2.2Zm3.046-.008a4.7,4.7,0,0,1,.95-3.1,3.106,3.106,0,0,1,2.511-1.141,3.14,3.14,0,0,1,2.511,1.112,4.608,4.608,0,0,1,.975,3.03v.946a4.68,4.68,0,0,1-.946,3.088A3.117,3.117,0,0,1,197.94.166a3.126,3.126,0,0,1-2.5-1.1,4.582,4.582,0,0,1-.975-2.988Zm1.469.847a3.806,3.806,0,0,0,.544,2.179,1.692,1.692,0,0,0,1.465.793q1.942,0,2-2.806V-4.906a3.808,3.808,0,0,0-.548-2.179,1.7,1.7,0,0,0-1.469-.8,1.673,1.673,0,0,0-1.448.8,3.813,3.813,0,0,0-.544,2.171ZM207.669-2.3a1.085,1.085,0,0,0-.357-.813,5.28,5.28,0,0,0-1.378-.8,9.011,9.011,0,0,1-1.673-.838,2.385,2.385,0,0,1-.726-.793,2.19,2.19,0,0,1-.241-1.058,2.356,2.356,0,0,1,.8-1.822,2.929,2.929,0,0,1,2.046-.726,2.92,2.92,0,0,1,2.108.764,2.594,2.594,0,0,1,.8,1.959h-1.461a1.445,1.445,0,0,0-.407-1.033,1.37,1.37,0,0,0-1.038-.427,1.457,1.457,0,0,0-1.017.335,1.153,1.153,0,0,0-.369.9.98.98,0,0,0,.27.72,4.808,4.808,0,0,0,1.3.72,6.529,6.529,0,0,1,2.225,1.251,2.142,2.142,0,0,1,.589,1.55,2.364,2.364,0,0,1-.805,1.875,3.167,3.167,0,0,1-2.158.7A3.219,3.219,0,0,1,203.9-.639a2.659,2.659,0,0,1-.872-2.042h1.478a1.646,1.646,0,0,0,.457,1.17,1.657,1.657,0,0,0,1.212.423,1.663,1.663,0,0,0,1.112-.328A1.106,1.106,0,0,0,207.669-2.3ZM212.633,0h-1.469V-8.981h1.469Zm.116-11.364a.94.94,0,0,1-.208.623.774.774,0,0,1-.631.249.764.764,0,0,1-.623-.249.94.94,0,0,1-.208-.623.973.973,0,0,1,.208-.631.752.752,0,0,1,.623-.257.759.759,0,0,1,.627.261A.965.965,0,0,1,212.749-11.364Zm8.7,7.3A5.455,5.455,0,0,1,220.693-.9,2.521,2.521,0,0,1,218.5.166a2.323,2.323,0,0,1-2.142-1.229L216.285,0h-1.336V-12.75h1.461v4.756a2.308,2.308,0,0,1,2.075-1.154A2.534,2.534,0,0,1,220.7-8.1a5.523,5.523,0,0,1,.747,3.154ZM219.987-4.9a4.308,4.308,0,0,0-.444-2.267,1.6,1.6,0,0,0-1.44-.676,1.8,1.8,0,0,0-1.693,1.227v4.27a1.8,1.8,0,0,0,1.71,1.21,1.549,1.549,0,0,0,1.428-.7A4.264,4.264,0,0,0,219.987-4ZM224.91,0H223.44V-12.75h1.469Zm5.52.166a3.276,3.276,0,0,1-2.573-1,4.323,4.323,0,0,1-.913-2.934V-4.856a5.062,5.062,0,0,1,.876-3.15,2.906,2.906,0,0,1,2.445-1.141,2.8,2.8,0,0,1,2.357,1,5.162,5.162,0,0,1,.8,3.129v.963H228.4v.208a3.276,3.276,0,0,0,.544,2.1,1.917,1.917,0,0,0,1.565.656,2.538,2.538,0,0,0,1.141-.245,2.836,2.836,0,0,0,.926-.776l.764.93A3.333,3.333,0,0,1,230.43.166Zm-.166-8.052a1.54,1.54,0,0,0-1.353.627,3.72,3.72,0,0,0-.5,1.947h3.536v-.2a3.432,3.432,0,0,0-.461-1.826A1.42,1.42,0,0,0,230.264-7.886Zm9.28,5.586a1.085,1.085,0,0,0-.357-.813,5.28,5.28,0,0,0-1.378-.8,9.011,9.011,0,0,1-1.673-.838,2.385,2.385,0,0,1-.726-.793,2.19,2.19,0,0,1-.241-1.058,2.356,2.356,0,0,1,.8-1.822,2.929,2.929,0,0,1,2.046-.726,2.92,2.92,0,0,1,2.108.764,2.594,2.594,0,0,1,.8,1.959h-1.461a1.445,1.445,0,0,0-.407-1.033,1.37,1.37,0,0,0-1.038-.427A1.457,1.457,0,0,0,237-7.551a1.153,1.153,0,0,0-.369.9.98.98,0,0,0,.27.72,4.808,4.808,0,0,0,1.3.72,6.529,6.529,0,0,1,2.225,1.251,2.142,2.142,0,0,1,.589,1.55,2.364,2.364,0,0,1-.805,1.875,3.167,3.167,0,0,1-2.158.7,3.219,3.219,0,0,1-2.274-.805,2.659,2.659,0,0,1-.872-2.042h1.478a1.646,1.646,0,0,0,.457,1.17,1.657,1.657,0,0,0,1.212.423,1.663,1.663,0,0,0,1.112-.328A1.106,1.106,0,0,0,239.544-2.3Zm11.638,0a1.085,1.085,0,0,0-.357-.813,5.28,5.28,0,0,0-1.378-.8,9.011,9.011,0,0,1-1.673-.838,2.385,2.385,0,0,1-.726-.793,2.19,2.19,0,0,1-.241-1.058,2.356,2.356,0,0,1,.8-1.822,2.929,2.929,0,0,1,2.046-.726,2.92,2.92,0,0,1,2.108.764,2.594,2.594,0,0,1,.8,1.959H251.1a1.445,1.445,0,0,0-.407-1.033,1.37,1.37,0,0,0-1.038-.427,1.457,1.457,0,0,0-1.017.335,1.153,1.153,0,0,0-.369.9.98.98,0,0,0,.27.72,4.808,4.808,0,0,0,1.3.72,6.529,6.529,0,0,1,2.225,1.251,2.142,2.142,0,0,1,.589,1.55,2.364,2.364,0,0,1-.805,1.875,3.167,3.167,0,0,1-2.158.7,3.219,3.219,0,0,1-2.274-.805,2.659,2.659,0,0,1-.872-2.042h1.478a1.646,1.646,0,0,0,.457,1.17,1.657,1.657,0,0,0,1.212.423,1.663,1.663,0,0,0,1.112-.328A1.106,1.106,0,0,0,251.182-2.3ZM257.772.166a3.276,3.276,0,0,1-2.573-1,4.323,4.323,0,0,1-.913-2.934V-4.856a5.062,5.062,0,0,1,.876-3.15,2.906,2.906,0,0,1,2.445-1.141,2.8,2.8,0,0,1,2.357,1,5.162,5.162,0,0,1,.8,3.129v.963h-5.014v.208a3.276,3.276,0,0,0,.544,2.1,1.917,1.917,0,0,0,1.565.656A2.538,2.538,0,0,0,259-1.332a2.836,2.836,0,0,0,.926-.776l.764.93A3.333,3.333,0,0,1,257.772.166Zm-.166-8.052a1.54,1.54,0,0,0-1.353.627,3.72,3.72,0,0,0-.5,1.947h3.536v-.2a3.432,3.432,0,0,0-.461-1.826A1.42,1.42,0,0,0,257.606-7.886ZM270.78-2.3a1.085,1.085,0,0,0-.357-.813,5.279,5.279,0,0,0-1.378-.8,9.011,9.011,0,0,1-1.673-.838,2.385,2.385,0,0,1-.726-.793,2.19,2.19,0,0,1-.241-1.058,2.356,2.356,0,0,1,.8-1.822,2.929,2.929,0,0,1,2.046-.726,2.92,2.92,0,0,1,2.108.764,2.594,2.594,0,0,1,.8,1.959H270.7a1.445,1.445,0,0,0-.407-1.033,1.37,1.37,0,0,0-1.038-.427,1.457,1.457,0,0,0-1.017.335,1.153,1.153,0,0,0-.369.9.98.98,0,0,0,.27.72,4.808,4.808,0,0,0,1.3.72,6.529,6.529,0,0,1,2.225,1.251,2.142,2.142,0,0,1,.589,1.55,2.364,2.364,0,0,1-.805,1.875,3.167,3.167,0,0,1-2.158.7,3.219,3.219,0,0,1-2.274-.805,2.659,2.659,0,0,1-.872-2.042h1.478a1.646,1.646,0,0,0,.457,1.17,1.657,1.657,0,0,0,1.212.423,1.663,1.663,0,0,0,1.112-.328A1.106,1.106,0,0,0,270.78-2.3ZM275.744,0h-1.469V-8.981h1.469Zm.116-11.364a.94.94,0,0,1-.208.623.774.774,0,0,1-.631.249.764.764,0,0,1-.623-.249.94.94,0,0,1-.208-.623.973.973,0,0,1,.208-.631.752.752,0,0,1,.623-.257.759.759,0,0,1,.627.261A.965.965,0,0,1,275.86-11.364Zm3.578,2.382.033.83a2.671,2.671,0,0,1,2.167-1,2.125,2.125,0,0,1,2.1,1.3,2.664,2.664,0,0,1,2.357-1.3q2.482,0,2.54,3.1V0h-1.461V-5.91a2.474,2.474,0,0,0-.349-1.457,1.363,1.363,0,0,0-1.179-.477,1.321,1.321,0,0,0-1.079.515,2.346,2.346,0,0,0-.481,1.312V0h-1.478V-5.977q-.025-1.868-1.519-1.868a1.6,1.6,0,0,0-1.569,1.112V0H278.06V-8.981Zm17.913,4.922A5.455,5.455,0,0,1,296.6-.9,2.521,2.521,0,0,1,294.4.166a2.323,2.323,0,0,1-2.142-1.229L292.188,0h-1.336V-12.75h1.461v4.756a2.308,2.308,0,0,1,2.075-1.154A2.535,2.535,0,0,1,296.6-8.1a5.523,5.523,0,0,1,.747,3.154ZM295.89-4.9a4.309,4.309,0,0,0-.444-2.267,1.6,1.6,0,0,0-1.44-.676,1.8,1.8,0,0,0-1.693,1.227v4.27a1.8,1.8,0,0,0,1.71,1.21,1.549,1.549,0,0,0,1.428-.7A4.264,4.264,0,0,0,295.89-4Zm3.03,0a4.7,4.7,0,0,1,.95-3.1,3.106,3.106,0,0,1,2.511-1.141,3.14,3.14,0,0,1,2.511,1.112,4.608,4.608,0,0,1,.975,3.03v.946a4.68,4.68,0,0,1-.946,3.088A3.117,3.117,0,0,1,302.4.166a3.126,3.126,0,0,1-2.5-1.1,4.582,4.582,0,0,1-.975-2.988Zm1.469.847a3.806,3.806,0,0,0,.544,2.179,1.691,1.691,0,0,0,1.465.793q1.942,0,2-2.806V-4.906a3.808,3.808,0,0,0-.548-2.179,1.7,1.7,0,0,0-1.469-.8,1.673,1.673,0,0,0-1.448.8,3.813,3.813,0,0,0-.544,2.171ZM309.345,0h-1.469V-12.75h1.469Zm3.893,0h-1.469V-8.981h1.469Zm.116-11.364a.94.94,0,0,1-.208.623.774.774,0,0,1-.631.249.764.764,0,0,1-.623-.249.94.94,0,0,1-.208-.623.973.973,0,0,1,.208-.631.752.752,0,0,1,.623-.257.759.759,0,0,1,.627.261A.965.965,0,0,1,313.354-11.364Zm3.553,10.11h4.333V0h-6.01V-1.129l4.117-6.583h-4.084v-1.27h5.811v1.087ZM327.632,0a3.231,3.231,0,0,1-.191-.979A2.333,2.333,0,0,1,325.449.166a2.575,2.575,0,0,1-1.905-.685,2.61,2.61,0,0,1-.685-1.93,2.73,2.73,0,0,1,.93-2.175,3.826,3.826,0,0,1,2.548-.822h1.079V-6.4a1.535,1.535,0,0,0-.357-1.146,1.525,1.525,0,0,0-1.087-.34,1.5,1.5,0,0,0-1.079.394,1.32,1.32,0,0,0-.415,1h-1.469a2.38,2.38,0,0,1,.407-1.316,2.833,2.833,0,0,1,1.1-.984,3.288,3.288,0,0,1,1.536-.357,2.924,2.924,0,0,1,2.1.685,2.68,2.68,0,0,1,.735,2v4.532a5.469,5.469,0,0,0,.282,1.8V0Zm-1.959-1.17a1.946,1.946,0,0,0,1.029-.3,1.843,1.843,0,0,0,.714-.747V-4.358h-.83a2.78,2.78,0,0,0-1.652.469,1.489,1.489,0,0,0-.606,1.266,1.642,1.642,0,0,0,.307,1.108A1.335,1.335,0,0,0,325.673-1.17Zm12.493.083a1.558,1.558,0,0,0,1.17-.452,1.919,1.919,0,0,0,.481-1.291H341.2a3.054,3.054,0,0,1-.917,2.146,2.914,2.914,0,0,1-2.121.851,3.125,3.125,0,0,1-2.544-1.05,4.784,4.784,0,0,1-.876-3.125V-5a4.761,4.761,0,0,1,.872-3.092,3.1,3.1,0,0,1,2.54-1.058,2.84,2.84,0,0,1,2.187.872,3.545,3.545,0,0,1,.859,2.382h-1.386a2.44,2.44,0,0,0-.477-1.494,1.476,1.476,0,0,0-1.183-.5,1.684,1.684,0,0,0-1.453.643,3.71,3.71,0,0,0-.49,2.113v1.146a4,4,0,0,0,.469,2.241A1.7,1.7,0,0,0,338.166-1.087Zm4.424-3.818a4.7,4.7,0,0,1,.95-3.1,3.106,3.106,0,0,1,2.511-1.141,3.14,3.14,0,0,1,2.511,1.112,4.608,4.608,0,0,1,.975,3.03v.946a4.68,4.68,0,0,1-.946,3.088A3.117,3.117,0,0,1,346.068.166a3.126,3.126,0,0,1-2.5-1.1,4.582,4.582,0,0,1-.975-2.988Zm1.469.847A3.806,3.806,0,0,0,344.6-1.88a1.691,1.691,0,0,0,1.465.793q1.942,0,2-2.806V-4.906a3.808,3.808,0,0,0-.548-2.179,1.7,1.7,0,0,0-1.469-.8,1.673,1.673,0,0,0-1.448.8,3.813,3.813,0,0,0-.544,2.171Zm8.757-4.922.042.971a2.621,2.621,0,0,1,2.183-1.137q2.382,0,2.416,3.179V0H356V-5.9a2.447,2.447,0,0,0-.353-1.5,1.27,1.27,0,0,0-1.058-.444,1.491,1.491,0,0,0-.984.365,2.631,2.631,0,0,0-.7.955V0H351.43V-8.981ZM365.135,0h-1.469V-12.75h1.469Zm6.931,0a3.231,3.231,0,0,1-.191-.979A2.333,2.333,0,0,1,369.883.166a2.575,2.575,0,0,1-1.905-.685,2.61,2.61,0,0,1-.685-1.93,2.73,2.73,0,0,1,.93-2.175,3.826,3.826,0,0,1,2.548-.822h1.079V-6.4a1.535,1.535,0,0,0-.357-1.146,1.525,1.525,0,0,0-1.087-.34,1.5,1.5,0,0,0-1.079.394,1.32,1.32,0,0,0-.415,1h-1.469a2.38,2.38,0,0,1,.407-1.316,2.833,2.833,0,0,1,1.1-.984,3.288,3.288,0,0,1,1.536-.357,2.924,2.924,0,0,1,2.1.685,2.68,2.68,0,0,1,.735,2v4.532a5.469,5.469,0,0,0,.282,1.8V0Zm-1.959-1.17a1.946,1.946,0,0,0,1.029-.3,1.843,1.843,0,0,0,.714-.747V-4.358h-.83a2.78,2.78,0,0,0-1.652.469,1.489,1.489,0,0,0-.606,1.266,1.642,1.642,0,0,0,.307,1.108A1.335,1.335,0,0,0,370.107-1.17ZM381.064,0h-1.469V-12.75h1.469Zm5.52.166a3.276,3.276,0,0,1-2.573-1,4.323,4.323,0,0,1-.913-2.934V-4.856a5.062,5.062,0,0,1,.876-3.15,2.906,2.906,0,0,1,2.445-1.141,2.8,2.8,0,0,1,2.357,1,5.162,5.162,0,0,1,.8,3.129v.963h-5.014v.208a3.276,3.276,0,0,0,.544,2.1,1.917,1.917,0,0,0,1.565.656,2.538,2.538,0,0,0,1.141-.245,2.836,2.836,0,0,0,.926-.776l.764.93A3.333,3.333,0,0,1,386.584.166Zm-.166-8.052a1.54,1.54,0,0,0-1.353.627,3.72,3.72,0,0,0-.5,1.947H388.1v-.2a3.432,3.432,0,0,0-.461-1.826A1.42,1.42,0,0,0,386.418-7.886Zm6.84-3.271v2.175h1.353v1.187h-1.353v5.577a1.516,1.516,0,0,0,.174.806.653.653,0,0,0,.6.274,1.856,1.856,0,0,0,.589-.1L394.6,0a3.227,3.227,0,0,1-1.021.165,1.545,1.545,0,0,1-1.328-.623,2.934,2.934,0,0,1-.457-1.76V-7.794h-1.37V-8.981h1.37v-2.175ZM400.064-7.6a3.574,3.574,0,0,0-.664-.058,1.612,1.612,0,0,0-1.577,1.237V0h-1.469V-8.981h1.428l.025.913a1.828,1.828,0,0,1,1.668-1.079,1.294,1.294,0,0,1,.581.116ZM405.817,0a3.231,3.231,0,0,1-.191-.979A2.333,2.333,0,0,1,403.634.166a2.575,2.575,0,0,1-1.905-.685,2.61,2.61,0,0,1-.685-1.93,2.73,2.73,0,0,1,.93-2.175,3.826,3.826,0,0,1,2.548-.822H405.6V-6.4a1.535,1.535,0,0,0-.357-1.146,1.525,1.525,0,0,0-1.087-.34,1.5,1.5,0,0,0-1.079.394,1.32,1.32,0,0,0-.415,1h-1.469a2.38,2.38,0,0,1,.407-1.316,2.833,2.833,0,0,1,1.1-.984,3.288,3.288,0,0,1,1.536-.357,2.924,2.924,0,0,1,2.1.685,2.68,2.68,0,0,1,.735,2v4.532a5.469,5.469,0,0,0,.282,1.8V0Zm-1.959-1.17a1.946,1.946,0,0,0,1.029-.3,1.843,1.843,0,0,0,.714-.747V-4.358h-.83a2.78,2.78,0,0,0-1.652.469,1.489,1.489,0,0,0-.606,1.266,1.642,1.642,0,0,0,.307,1.108A1.335,1.335,0,0,0,403.858-1.17Zm10.758-7.811.042.971a2.621,2.621,0,0,1,2.183-1.137q2.382,0,2.416,3.179V0h-1.461V-5.9a2.447,2.447,0,0,0-.353-1.5,1.27,1.27,0,0,0-1.058-.444,1.491,1.491,0,0,0-.984.365,2.631,2.631,0,0,0-.7.955V0h-1.469V-8.981Zm6.939,8.176a.962.962,0,0,1,.237-.664.9.9,0,0,1,.71-.266.928.928,0,0,1,.718.266.942.942,0,0,1,.245.664.891.891,0,0,1-.245.639.945.945,0,0,1-.718.257.917.917,0,0,1-.71-.257A.909.909,0,0,1,421.555-.805Z" transform="translate(859 854.841)"/>
  </g>
</svg>
